<svg viewBox="383 190.3007 411.0323 97.6986" width="5000" height="1188.4540460688854" xmlns="http://www.w3.org/2000/svg" xmlns:xlink="http://www.w3.org/1999/xlink" preserveAspectRatio="none"><defs></defs><style>.a6izo4zJpcolor {fill:#A9B7C6;fill-opacity:1;}.aD6z1nYkhcolor {fill:#A9B7C6;fill-opacity:1;}.aIptOCySncolors-0 {fill:#FF8C00;fill-opacity:1;}.aIptOCySncolors-1 {fill:#1C3D5A;fill-opacity:1;}.icon3 {fill:#5E718C;fill-opacity:1;}.icon3-str {stroke:#5E718C;stroke-opacity:1;}</style><g opacity="1" transform="rotate(0 383 190.3007)">
<svg width="113.2738" height="97.6986" x="383" y="190.3007" version="1.1" preserveAspectRatio="none" viewBox="20 31.000001907348633 160 138">
  <g transform="matrix(1 0 0 1 0 0)" ><g><path d="M87.3 169c-2.1 0-3.9-1.7-3.9-3.9V34.9c0-2.2 1.7-3.9 3.9-3.9s3.9 1.7 3.9 3.9v130.2c0 2.2-1.8 3.9-3.9 3.9z" data-color="1" class="aIptOCySncolors-0"></path><path d="M23.9 86.1c-2.1 0-3.9 1.7-3.9 3.9v20c0 2.2 1.7 3.9 3.9 3.9s3.9-1.7 3.9-3.9V90c-.1-2.2-1.8-3.9-3.9-3.9z" data-color="2" class="aIptOCySncolors-1"></path><path d="M176.1 87.7c-2.1 0-3.9 1.7-3.9 3.9v16.7c0 2.2 1.7 3.9 3.9 3.9s3.9-1.7 3.9-3.9V91.6c0-2.1-1.7-3.9-3.9-3.9z" data-color="2" class="aIptOCySncolors-1"></path><path d="M36.6 69.1c-2.1 0-3.9 1.7-3.9 3.9v54c0 2.2 1.7 3.9 3.9 3.9s3.9-1.7 3.9-3.9V73c-.1-2.1-1.8-3.9-3.9-3.9z" data-color="2" class="aIptOCySncolors-1"></path><path d="M49.2 75.7c-2.1 0-3.9 1.7-3.9 3.9v40.9c0 2.2 1.7 3.9 3.9 3.9s3.9-1.7 3.9-3.9V79.6c0-2.2-1.7-3.9-3.9-3.9z" data-color="2" class="aIptOCySncolors-1"></path><path d="M61.9 57.7c-2.1 0-3.9 1.7-3.9 3.9v76.9c0 2.2 1.7 3.9 3.9 3.9 2.1 0 3.9-1.7 3.9-3.9v-77c0-2.1-1.7-3.8-3.9-3.8z" data-color="2" class="aIptOCySncolors-1"></path><path d="M74.6 39.9c-2.1 0-3.9 1.7-3.9 3.9v112.4c0 2.2 1.7 3.9 3.9 3.9s3.9-1.7 3.9-3.9V43.8c0-2.2-1.7-3.9-3.9-3.9z" data-color="2" class="aIptOCySncolors-1"></path><path d="M100 52.7c-2.1 0-3.9 1.7-3.9 3.9v86.7c0 2.2 1.7 3.9 3.9 3.9s3.9-1.7 3.9-3.9V56.6c0-2.1-1.8-3.9-3.9-3.9z" data-color="2" class="aIptOCySncolors-1"></path><path d="M112.7 73.4c-2.1 0-3.9 1.7-3.9 3.9v45.5c0 2.2 1.7 3.9 3.9 3.9s3.9-1.7 3.9-3.9V77.3c0-2.2-1.8-3.9-3.9-3.9z" data-color="2" class="aIptOCySncolors-1"></path><path d="M125.4 86.1c-2.1 0-3.9 1.7-3.9 3.9v20c0 2.2 1.7 3.9 3.9 3.9s3.9-1.7 3.9-3.9V90c-.1-2.2-1.8-3.9-3.9-3.9z" data-color="2" class="aIptOCySncolors-1"></path><path d="M163.4 81.1c-2.1 0-3.9 1.7-3.9 3.9v25.3c0 1.6-1.1 2.9-2.5 2.9-1.2 0-2.3-1.1-2.5-2.5V74.9c0-2.2-1.7-3.9-3.9-3.9s-3.9 1.7-3.9 3.9v21.7c-.1 1.5-1.2 2.8-2.5 2.8-1.4 0-2.4-1.3-2.5-2.8V83.1c0-2.2-1.7-3.9-3.9-3.9s-3.9 1.7-3.9 3.9v33.8c0 2.2 1.7 3.9 3.9 3.9s3.9-1.7 3.9-3.9v-5.7c0-1.6 1.1-2.8 2.5-2.8 1.3 0 2.4 1.2 2.5 2.8v28.1c0 2.2 1.7 3.9 3.9 3.9s3.9-1.7 3.9-3.9v-14.5c.2-1.4 1.2-2.5 2.5-2.5 1.4 0 2.5 1.3 2.5 2.9v6.3c0 2.2 1.7 3.9 3.9 3.9s3.9-1.7 3.9-3.9V85c0-2.1-1.7-3.9-3.9-3.9z" data-color="2" class="aIptOCySncolors-1"></path><path d="M166.7 144.7c0 2.2-1.8 3.9-3.9 3.9-2.2 0-3.9-1.8-3.9-3.9 0-2.2 1.8-3.9 3.9-3.9 2.1-.1 3.9 1.7 3.9 3.9z" data-color="2" class="aIptOCySncolors-1"></path></g></g>
</svg>
</g><g opacity="1" transform="rotate(0 507.92 255.0018)">
<svg width="161.1528" height="14.5074" x="507.92" y="255.0018" version="1.1" preserveAspectRatio="none" viewBox="0.84 -32.16 476.32000000000005 42.879999999999995">
  <g transform="matrix(1 0 0 1 0 0)" class="a6izo4zJpcolor"><path id="id-6izo4zJp21" d="M12.64 0.56Q9.24 0.56 6.04-0.28Q2.84-1.12 0.84-2.52L0.84-2.52L3.44-8.36Q5.32-7.12 7.80-6.36Q10.28-5.60 12.68-5.60L12.68-5.60Q17.24-5.60 17.24-7.88L17.24-7.88Q17.24-9.08 15.94-9.66Q14.64-10.24 11.76-10.88L11.76-10.88Q8.60-11.56 6.48-12.34Q4.36-13.12 2.84-14.84Q1.32-16.56 1.32-19.48L1.32-19.48Q1.32-22.04 2.72-24.10Q4.12-26.16 6.90-27.36Q9.68-28.56 13.72-28.56L13.72-28.56Q16.48-28.56 19.16-27.94Q21.84-27.32 23.88-26.12L23.88-26.12L21.44-20.24Q17.44-22.40 13.68-22.40L13.68-22.40Q11.32-22.40 10.24-21.70Q9.16-21 9.16-19.88L9.16-19.88Q9.16-18.76 10.44-18.20Q11.72-17.64 14.56-17.04L14.56-17.04Q17.76-16.36 19.86-15.58Q21.96-14.80 23.50-13.10Q25.04-11.40 25.04-8.48L25.04-8.48Q25.04-5.96 23.64-3.92Q22.24-1.88 19.44-0.66Q16.64 0.56 12.64 0.56L12.64 0.56Z M43.20 0.36Q39.72 0.36 36.92-1.08Q34.12-2.52 32.54-5.08Q30.96-7.64 30.96-10.88L30.96-10.88Q30.96-14.08 32.54-16.64Q34.12-19.20 36.90-20.62Q39.68-22.04 43.20-22.04L43.20-22.04Q46.72-22.04 49.52-20.62Q52.32-19.20 53.88-16.66Q55.44-14.12 55.44-10.88L55.44-10.88Q55.44-7.64 53.88-5.08Q52.32-2.52 49.52-1.08Q46.72 0.36 43.20 0.36L43.20 0.36ZM43.20-5.68Q45.20-5.68 46.48-7.06Q47.76-8.44 47.76-10.88L47.76-10.88Q47.76-13.28 46.48-14.64Q45.20-16 43.20-16L43.20-16Q41.20-16 39.92-14.64Q38.64-13.28 38.64-10.88L38.64-10.88Q38.64-8.44 39.92-7.06Q41.20-5.68 43.20-5.68L43.20-5.68Z M62.96 0L62.96-29.68L70.56-29.68L70.56 0L62.96 0Z M94.68-21.68L102.28-21.68L102.28 0L95.04 0L95.04-2.32Q93.84-1 92.16-0.32Q90.48 0.36 88.60 0.36L88.60 0.36Q84.40 0.36 81.90-2.12Q79.40-4.60 79.40-9.56L79.40-9.56L79.40-21.68L87-21.68L87-10.80Q87-8.36 87.92-7.24Q88.84-6.12 90.60-6.12L90.60-6.12Q92.40-6.12 93.54-7.38Q94.68-8.64 94.68-11.24L94.68-11.24L94.68-21.68Z M124.24-6.20L126.12-0.88Q125.16-0.28 123.78 0.04Q122.40 0.36 120.84 0.36L120.84 0.36Q116.60 0.36 114.32-1.72Q112.04-3.80 112.04-7.92L112.04-7.92L112.04-15.20L108.88-15.20L108.88-20.88L112.04-20.88L112.04-26.52L119.64-26.52L119.64-20.88L124.60-20.88L124.60-15.20L119.64-15.20L119.64-8Q119.64-6.84 120.26-6.18Q120.88-5.52 121.92-5.52L121.92-5.52Q123.24-5.52 124.24-6.20L124.24-6.20ZM119.44 2.48Q120.88 2.48 121.74 3.22Q122.60 3.96 122.60 5.16L122.60 5.16Q122.60 6.56 121.76 8.04L121.76 8.04L120.28 10.72L116.84 10.72L117.88 7.56Q116.28 6.96 116.28 5.16L116.28 5.16Q116.28 3.96 117.14 3.22Q118 2.48 119.44 2.48L119.44 2.48Z M133.04 0L133.04-21.68L140.64-21.68L140.64 0L133.04 0ZM136.84-24.08Q134.76-24.08 133.48-25.24Q132.20-26.40 132.20-28.12L132.20-28.12Q132.20-29.84 133.48-31Q134.76-32.16 136.84-32.16L136.84-32.16Q138.92-32.16 140.20-31.06Q141.48-29.96 141.48-28.24L141.48-28.24Q141.48-26.44 140.20-25.26Q138.92-24.08 136.84-24.08L136.84-24.08Z M149.56 0L149.56-21.68L157.16-21.68L157.16 0L149.56 0ZM153.36-24.08Q151.28-24.08 150-25.24Q148.72-26.40 148.72-28.12L148.72-28.12Q148.72-29.84 150-31Q151.28-32.16 153.36-32.16L153.36-32.16Q155.44-32.16 156.72-31.06Q158-29.96 158-28.24L158-28.24Q158-26.44 156.72-25.26Q155.44-24.08 153.36-24.08L153.36-24.08Z M197.16-29.68L204.76-29.68L204.76 0L197.52 0L197.52-2.16Q195.40 0.36 191.16 0.36L191.16 0.36Q188.20 0.36 185.76-1.02Q183.32-2.40 181.90-4.96Q180.48-7.52 180.48-10.88L180.48-10.88Q180.48-14.24 181.90-16.78Q183.32-19.32 185.76-20.68Q188.20-22.04 191.16-22.04L191.16-22.04Q195.04-22.04 197.16-19.80L197.16-19.80L197.16-29.68ZM192.76-5.68Q194.72-5.68 196.00-7.06Q197.28-8.44 197.28-10.88L197.28-10.88Q197.28-13.28 196.02-14.64Q194.76-16 192.76-16L192.76-16Q190.76-16 189.48-14.64Q188.20-13.28 188.20-10.88L188.20-10.88Q188.20-8.44 189.48-7.06Q190.76-5.68 192.76-5.68L192.76-5.68Z M213.64 0L213.64-21.68L221.24-21.68L221.24 0L213.64 0ZM217.44-24.08Q215.36-24.08 214.08-25.24Q212.80-26.40 212.80-28.12L212.80-28.12Q212.80-29.84 214.08-31Q215.36-32.16 217.44-32.16L217.44-32.16Q219.52-32.16 220.80-31.06Q222.08-29.96 222.08-28.24L222.08-28.24Q222.08-26.44 220.80-25.26Q219.52-24.08 217.44-24.08L217.44-24.08Z M246.24-21.68L253.48-21.68L253.48-3.96Q253.48 2.08 250.20 5.10Q246.92 8.12 240.76 8.12L240.76 8.12Q237.56 8.12 234.76 7.40Q231.96 6.68 230.00 5.28L230.00 5.28L232.76-0.04Q234.08 1.04 236.10 1.66Q238.12 2.28 240.08 2.28L240.08 2.28Q243.08 2.28 244.48 0.96Q245.88-0.36 245.88-2.96L245.88-2.96L245.88-3.68Q243.68-1.12 239.44-1.12L239.44-1.12Q236.56-1.12 234.12-2.42Q231.68-3.72 230.24-6.10Q228.80-8.48 228.80-11.60L228.80-11.60Q228.80-14.68 230.24-17.06Q231.68-19.44 234.12-20.74Q236.56-22.04 239.44-22.04L239.44-22.04Q244.08-22.04 246.24-19.04L246.24-19.04L246.24-21.68ZM241.24-7.16Q243.28-7.16 244.62-8.40Q245.96-9.64 245.96-11.60L245.96-11.60Q245.96-13.56 244.64-14.78Q243.32-16 241.24-16L241.24-16Q239.16-16 237.82-14.78Q236.48-13.56 236.48-11.60L236.48-11.60Q236.48-9.64 237.84-8.40Q239.20-7.16 241.24-7.16L241.24-7.16Z M262.36 0L262.36-21.68L269.96-21.68L269.96 0L262.36 0ZM266.16-24.08Q264.08-24.08 262.80-25.24Q261.52-26.40 261.52-28.12L261.52-28.12Q261.52-29.84 262.80-31Q264.08-32.16 266.16-32.16L266.16-32.16Q268.24-32.16 269.52-31.06Q270.80-29.96 270.80-28.24L270.80-28.24Q270.80-26.44 269.52-25.26Q268.24-24.08 266.16-24.08L266.16-24.08Z M291.96-6.20L293.84-0.88Q292.88-0.28 291.50 0.04Q290.12 0.36 288.56 0.36L288.56 0.36Q284.32 0.36 282.04-1.72Q279.76-3.80 279.76-7.92L279.76-7.92L279.76-15.20L276.60-15.20L276.60-20.88L279.76-20.88L279.76-26.52L287.36-26.52L287.36-20.88L292.32-20.88L292.32-15.20L287.36-15.20L287.36-8Q287.36-6.84 287.98-6.18Q288.60-5.52 289.64-5.52L289.64-5.52Q290.96-5.52 291.96-6.20L291.96-6.20Z M310.00-22.04Q315.40-22.04 318.24-19.58Q321.08-17.12 321.08-12.04L321.08-12.04L321.08 0L314.00 0L314.00-2.80Q312.36 0.36 307.60 0.36L307.60 0.36Q305.08 0.36 303.24-0.52Q301.40-1.40 300.46-2.90Q299.52-4.40 299.52-6.32L299.52-6.32Q299.52-9.40 301.88-11.10Q304.24-12.80 309.16-12.80L309.16-12.80L313.48-12.80Q313.28-16.24 308.88-16.24L308.88-16.24Q307.32-16.24 305.72-15.74Q304.12-15.24 303.00-14.36L303.00-14.36L300.44-19.52Q302.24-20.72 304.82-21.38Q307.40-22.04 310.00-22.04L310.00-22.04ZM309.72-4.44Q311.04-4.44 312.04-5.08Q313.04-5.72 313.48-6.96L313.48-6.96L313.48-8.84L310.20-8.84Q306.88-8.84 306.88-6.64L306.88-6.64Q306.88-5.64 307.64-5.04Q308.40-4.44 309.72-4.44L309.72-4.44Z M329.88 0L329.88-29.68L337.48-29.68L337.48 0L329.88 0Z M346.40 0L346.40-21.68L354.00-21.68L354.00 0L346.40 0ZM350.20-24.08Q348.12-24.08 346.84-25.24Q345.56-26.40 345.56-28.12L345.56-28.12Q345.56-29.84 346.84-31Q348.12-32.16 350.20-32.16L350.20-32.16Q352.28-32.16 353.56-31.06Q354.84-29.96 354.84-28.24L354.84-28.24Q354.84-26.44 353.56-25.26Q352.28-24.08 350.20-24.08L350.20-24.08Z M371.36-5.68L381.80-5.68L381.80 0L361.80 0L361.80-4.48L371.84-16.04L362.08-16.04L362.08-21.68L381.40-21.68L381.40-17.24L371.36-5.68Z M398.40-22.04Q403.80-22.04 406.64-19.58Q409.48-17.12 409.48-12.04L409.48-12.04L409.48 0L402.40 0L402.40-2.80Q400.76 0.36 396 0.36L396 0.36Q393.48 0.36 391.64-0.52Q389.80-1.40 388.86-2.90Q387.92-4.40 387.92-6.32L387.92-6.32Q387.92-9.40 390.28-11.10Q392.64-12.80 397.56-12.80L397.56-12.80L401.88-12.80Q401.68-16.24 397.28-16.24L397.28-16.24Q395.72-16.24 394.12-15.74Q392.52-15.24 391.40-14.36L391.40-14.36L388.84-19.52Q390.64-20.72 393.22-21.38Q395.80-22.04 398.40-22.04L398.40-22.04ZM398.12-4.44Q399.44-4.44 400.44-5.08Q401.44-5.72 401.88-6.96L401.88-6.96L401.88-8.84L398.60-8.84Q395.28-8.84 395.28-6.64L395.28-6.64Q395.28-5.64 396.04-5.04Q396.80-4.44 398.12-4.44L398.12-4.44Z M425.52-19.08Q426.68-20.56 428.54-21.30Q430.40-22.04 432.80-22.04L432.80-22.04L432.80-15.20Q431.76-15.32 431.08-15.32L431.08-15.32Q428.64-15.32 427.26-14Q425.88-12.68 425.88-9.96L425.88-9.96L425.88 0L418.28 0L418.28-21.68L425.52-21.68L425.52-19.08Z M461.88-10.80Q461.88-10.72 461.76-8.92L461.76-8.92L446.00-8.92Q446.48-7.24 447.86-6.34Q449.24-5.44 451.32-5.44L451.32-5.44Q452.88-5.44 454.02-5.88Q455.16-6.32 456.32-7.32L456.32-7.32L460.32-3.16Q457.16 0.36 451.08 0.36L451.08 0.36Q447.28 0.36 444.40-1.08Q441.52-2.52 439.94-5.08Q438.36-7.64 438.36-10.88L438.36-10.88Q438.36-14.08 439.90-16.62Q441.44-19.16 444.16-20.60Q446.88-22.04 450.28-22.04L450.28-22.04Q453.52-22.04 456.16-20.70Q458.80-19.36 460.34-16.82Q461.88-14.28 461.88-10.80L461.88-10.80ZM450.32-16.64Q448.56-16.64 447.38-15.64Q446.20-14.64 445.88-12.92L445.88-12.92L454.76-12.92Q454.44-14.64 453.26-15.64Q452.08-16.64 450.32-16.64L450.32-16.64Z M472.60 0.36Q470.68 0.36 469.36-0.92Q468.04-2.20 468.04-4.16L468.04-4.16Q468.04-6.16 469.34-7.40Q470.64-8.64 472.60-8.64L472.60-8.64Q474.60-8.64 475.88-7.40Q477.16-6.16 477.16-4.16L477.16-4.16Q477.16-2.20 475.86-0.92Q474.56 0.36 472.60 0.36L472.60 0.36Z"/></g>
</svg>
</g><g opacity="1" transform="rotate(0 507.92 209.711)">
<svg width="286.1123" height="33.0399" x="507.92" y="209.711" version="1.1" preserveAspectRatio="none" viewBox="2.76 -30 262.56 30.32">
  <g transform="matrix(1 0 0 1 0 0)" class="aD6z1nYkhcolor"><path id="id-D6z1nYkh12" d="M30.68-21.52L36.92-21.52L36.92-9.64Q36.92-4.88 34.32-2.28Q31.72 0.32 26.92 0.32L26.92 0.32Q24.60 0.32 22.82-0.40Q21.04-1.12 19.84-2.72L19.84-2.72Q18.64-1.12 16.88-0.40Q15.12 0.32 12.72 0.32L12.72 0.32Q7.88 0.32 5.32-2.28Q2.76-4.88 2.76-9.64L2.76-9.64L2.76-21.52L9-21.52L9-10.12Q9-7.44 9.92-6.18Q10.84-4.92 12.80-4.92L12.80-4.92Q14.80-4.92 15.76-6.20Q16.72-7.48 16.72-10.12L16.72-10.12L16.72-21.52L22.96-21.52L22.96-10.12Q22.96-7.48 23.92-6.20Q24.88-4.92 26.88-4.92L26.88-4.92Q28.84-4.92 29.76-6.18Q30.68-7.44 30.68-10.12L30.68-10.12L30.68-21.52Z M53.36-4.68Q55.04-4.68 56.34-5.18Q57.64-5.68 58.76-6.76L58.76-6.76L62.08-3.16Q59.04 0.32 53.20 0.32L53.20 0.32Q49.56 0.32 46.76-1.10Q43.96-2.52 42.44-5.04Q40.92-7.56 40.92-10.76L40.92-10.76Q40.92-13.92 42.42-16.46Q43.92-19 46.54-20.42Q49.16-21.84 52.44-21.84L52.44-21.84Q55.52-21.84 58.04-20.54Q60.56-19.24 62.06-16.78Q63.56-14.32 63.56-10.96L63.56-10.96L47.64-7.88Q48.32-6.28 49.78-5.48Q51.24-4.68 53.36-4.68L53.36-4.68ZM52.44-17.12Q50.08-17.12 48.60-15.60Q47.12-14.08 47.04-11.40L47.04-11.40L57.52-13.44Q57.08-15.12 55.72-16.12Q54.36-17.12 52.44-17.12L52.44-17.12Z M80.48-21.84Q83.48-21.84 85.94-20.46Q88.40-19.08 89.80-16.58Q91.20-14.08 91.20-10.76L91.20-10.76Q91.20-7.44 89.80-4.94Q88.40-2.44 85.94-1.06Q83.48 0.32 80.48 0.32L80.48 0.32Q76.04 0.32 73.72-2.48L73.72-2.48L73.72 0L67.76 0L67.76-29.68L74-29.68L74-19.24Q76.36-21.84 80.48-21.84L80.48-21.84ZM79.40-4.80Q81.80-4.80 83.34-6.42Q84.88-8.04 84.88-10.76L84.88-10.76Q84.88-13.48 83.34-15.10Q81.80-16.72 79.40-16.72L79.40-16.72Q77-16.72 75.46-15.10Q73.92-13.48 73.92-10.76L73.92-10.76Q73.92-8.04 75.46-6.42Q77-4.80 79.40-4.80L79.40-4.80Z M105.76 0.32Q102.32 0.32 99.58-1.10Q96.84-2.52 95.30-5.04Q93.76-7.56 93.76-10.76L93.76-10.76Q93.76-13.96 95.30-16.48Q96.84-19 99.58-20.42Q102.32-21.84 105.76-21.84L105.76-21.84Q109.16-21.84 111.70-20.42Q114.24-19 115.40-16.36L115.40-16.36L110.56-13.76Q108.88-16.72 105.72-16.72L105.72-16.72Q103.28-16.72 101.68-15.12Q100.08-13.52 100.08-10.76L100.08-10.76Q100.08-8 101.68-6.40Q103.28-4.80 105.72-4.80L105.72-4.80Q108.92-4.80 110.56-7.76L110.56-7.76L115.40-5.12Q114.24-2.56 111.70-1.12Q109.16 0.32 105.76 0.32L105.76 0.32Z M124.96-18.68Q126.08-20.24 127.98-21.04Q129.88-21.84 132.36-21.84L132.36-21.84L132.36-16.08Q131.32-16.16 130.96-16.16L130.96-16.16Q128.28-16.16 126.76-14.66Q125.24-13.16 125.24-10.16L125.24-10.16L125.24 0L119.00 0L119.00-21.52L124.96-21.52L124.96-18.68Z M151.48-21.52L157.72-21.52L157.72 0L151.76 0L151.76-2.48Q149.44 0.32 145.04 0.32L145.04 0.32Q142.00 0.32 139.54-1.04Q137.08-2.40 135.68-4.92Q134.28-7.44 134.28-10.76L134.28-10.76Q134.28-14.08 135.68-16.60Q137.08-19.12 139.54-20.48Q142.00-21.84 145.04-21.84L145.04-21.84Q149.16-21.84 151.48-19.24L151.48-19.24L151.48-21.52ZM146.12-4.80Q148.48-4.80 150.04-6.42Q151.60-8.04 151.60-10.76L151.60-10.76Q151.60-13.48 150.04-15.10Q148.48-16.72 146.12-16.72L146.12-16.72Q143.72-16.72 142.16-15.10Q140.60-13.48 140.60-10.76L140.60-10.76Q140.60-8.04 142.16-6.42Q143.72-4.80 146.12-4.80L146.12-4.80Z M169.56-21.96L169.56-21.04L175.08-21.04L175.08-16.24L169.72-16.24L169.72 0L163.48 0L163.48-22Q163.48-25.68 165.66-27.84Q167.84-30 171.80-30L171.80-30Q173.20-30 174.46-29.70Q175.72-29.40 176.56-28.84L176.56-28.84L174.92-24.32Q173.84-25.08 172.40-25.08L172.40-25.08Q169.56-25.08 169.56-21.96L169.56-21.96Z M189.52-5.44L191.16-1.04Q190.24-0.36 188.90-0.02Q187.56 0.32 186.12 0.32L186.12 0.32Q182.24 0.32 180.16-1.64Q178.08-3.60 178.08-7.40L178.08-7.40L178.08-26.28L184.32-26.28L184.32-21.04L189.64-21.04L189.64-16.24L184.32-16.24L184.32-7.48Q184.32-6.12 185.00-5.38Q185.68-4.64 186.96-4.64L186.96-4.64Q188.40-4.64 189.52-5.44L189.52-5.44Z M201.92 0.32Q199.24 0.32 196.68-0.34Q194.12-1 192.60-2L192.60-2L194.68-6.48Q196.12-5.56 198.16-4.98Q200.20-4.40 202.16-4.40L202.16-4.40Q206.12-4.40 206.12-6.36L206.12-6.36Q206.12-7.28 205.04-7.68Q203.96-8.08 201.72-8.36L201.72-8.36Q199.08-8.76 197.36-9.28Q195.64-9.80 194.38-11.12Q193.12-12.44 193.12-14.88L193.12-14.88Q193.12-16.92 194.30-18.50Q195.48-20.08 197.74-20.96Q200.00-21.84 203.08-21.84L203.08-21.84Q205.36-21.84 207.62-21.34Q209.88-20.84 211.36-19.96L211.36-19.96L209.28-15.52Q206.44-17.12 203.08-17.12L203.08-17.12Q201.08-17.12 200.08-16.56Q199.08-16 199.08-15.12L199.08-15.12Q199.08-14.12 200.16-13.72Q201.24-13.32 203.60-12.96L203.60-12.96Q206.24-12.52 207.92-12.02Q209.60-11.52 210.84-10.20Q212.08-8.88 212.08-6.52L212.08-6.52Q212.08-4.52 210.88-2.96Q209.68-1.40 207.38-0.54Q205.08 0.32 201.92 0.32L201.92 0.32Z M218.28 0.32Q216.64 0.32 215.52-0.80Q214.40-1.92 214.40-3.60L214.40-3.60Q214.40-5.32 215.52-6.38Q216.64-7.44 218.28-7.44L218.28-7.44Q219.92-7.44 221.04-6.38Q222.16-5.32 222.16-3.60L222.16-3.60Q222.16-1.92 221.04-0.80Q219.92 0.32 218.28 0.32L218.28 0.32Z M232.36-18.68Q233.48-20.24 235.38-21.04Q237.28-21.84 239.76-21.84L239.76-21.84L239.76-16.08Q238.72-16.16 238.36-16.16L238.36-16.16Q235.68-16.16 234.16-14.66Q232.64-13.16 232.64-10.16L232.64-10.16L232.64 0L226.40 0L226.40-21.52L232.36-21.52L232.36-18.68Z M253.52 0.32Q250.12 0.32 247.42-1.10Q244.72-2.52 243.20-5.04Q241.68-7.56 241.68-10.76L241.68-10.76Q241.68-13.96 243.20-16.48Q244.72-19 247.42-20.42Q250.12-21.84 253.52-21.84L253.52-21.84Q256.92-21.84 259.60-20.42Q262.28-19 263.80-16.48Q265.32-13.96 265.32-10.76L265.32-10.76Q265.32-7.56 263.80-5.04Q262.28-2.52 259.60-1.10Q256.92 0.32 253.52 0.32L253.52 0.32ZM253.52-4.80Q255.92-4.80 257.46-6.42Q259.00-8.04 259.00-10.76L259.00-10.76Q259.00-13.48 257.46-15.10Q255.92-16.72 253.52-16.72L253.52-16.72Q251.12-16.72 249.56-15.10Q248.00-13.48 248.00-10.76L248.00-10.76Q248.00-8.04 249.56-6.42Q251.12-4.80 253.52-4.80L253.52-4.80Z"/></g>
</svg>
</g></svg>